<svg width="20" height="20" viewBox="0 0 20 20" fill="none" xmlns="http://www.w3.org/2000/svg">
<g clip-path="url(#clip0_43411_15366)">
<path fill-rule="evenodd" clip-rule="evenodd" d="M2.53125 9.37392C1.52708 9.37392 0.659167 8.50892 0.65625 7.37267L0.657917 7.34642C0.659306 7.31781 0.664583 7.26434 0.67375 7.18601C0.692917 7.02809 0.733333 6.76642 0.817917 6.37767C0.987083 5.59934 1.33083 4.31767 2.02833 2.34601C2.315 1.53476 2.98333 0.976007 3.79083 0.889341C7.93948 0.449321 12.123 0.449321 16.2717 0.889341C17.0792 0.976007 17.7475 1.53517 18.0342 2.34601C18.7317 4.31767 19.0758 5.59934 19.2446 6.37767C19.3292 6.76642 19.3696 7.02809 19.3888 7.18601C19.3966 7.24803 19.4024 7.31028 19.4062 7.37267C19.4033 8.50892 18.5354 9.37392 17.5312 9.37392C16.5254 9.37392 15.6562 8.50601 15.6562 7.36726C15.6562 7.2015 15.5904 7.04253 15.4732 6.92532C15.356 6.80811 15.197 6.74226 15.0312 6.74226C14.8655 6.74226 14.7065 6.80811 14.5893 6.92532C14.4721 7.04253 14.4062 7.2015 14.4062 7.36726C14.4062 8.50601 13.5371 9.37392 12.5312 9.37392C11.5254 9.37392 10.6562 8.50601 10.6562 7.36726C10.6562 7.2015 10.5904 7.04253 10.4732 6.92532C10.356 6.80811 10.197 6.74226 10.0312 6.74226C9.86549 6.74226 9.70652 6.80811 9.58931 6.92532C9.4721 7.04253 9.40625 7.2015 9.40625 7.36726C9.40625 8.50601 8.53708 9.37392 7.53125 9.37392C6.52542 9.37392 5.65625 8.50601 5.65625 7.36726C5.65625 7.2015 5.5904 7.04253 5.47319 6.92532C5.35598 6.80811 5.19701 6.74226 5.03125 6.74226C4.86549 6.74226 4.70652 6.80811 4.58931 6.92532C4.4721 7.04253 4.40625 7.2015 4.40625 7.36726C4.40625 8.50601 3.53708 9.37392 2.53125 9.37392ZM1.45792 10.4298V12.5006C1.45792 14.3702 1.53292 15.7702 1.6175 16.7523C1.73583 18.1306 2.83 19.141 4.18417 19.2239C5.42208 19.2998 7.32833 19.3756 9.99958 19.3756C12.6704 19.3756 14.5771 19.2998 15.815 19.2239C17.1692 19.1406 18.2633 18.1306 18.3817 16.7523C18.4662 15.7702 18.5413 14.3702 18.5413 12.5006V10.4531C18.217 10.5682 17.8753 10.6267 17.5312 10.626C16.4967 10.626 15.5967 10.1093 15.0312 9.32267C14.4662 10.1089 13.5658 10.626 12.5312 10.626C11.4967 10.626 10.5967 10.1093 10.0312 9.32267C9.46625 10.1089 8.56583 10.626 7.53125 10.626C6.49667 10.626 5.59667 10.1093 5.03125 9.32267C4.46625 10.1089 3.56583 10.626 2.53125 10.626C2.16448 10.6268 1.80069 10.5602 1.45792 10.4298ZM9.99958 13.1256C9.03167 13.1256 8.3625 13.1964 7.91625 13.2764C7.61375 13.3306 7.38208 13.5806 7.3575 14.0181C7.32292 14.636 7.29125 15.6068 7.29125 17.0839C7.29125 17.4173 7.55792 17.6864 7.8825 17.6918C8.52472 17.703 9.23042 17.7086 9.99958 17.7089C10.769 17.7086 11.4747 17.703 12.1167 17.6918C12.2751 17.6879 12.4258 17.6221 12.5363 17.5085C12.6468 17.3948 12.7084 17.2424 12.7079 17.0839C12.7079 15.6068 12.6762 14.636 12.6417 14.0181C12.6175 13.5806 12.3854 13.3306 12.0833 13.2764C11.6367 13.1964 10.9675 13.1256 9.99958 13.1256Z" fill="#0A0D12"/>
</g>
<defs>
<clipPath id="clip0_43411_15366">
<rect width="20" height="20" fill="white"/>
</clipPath>
</defs>
</svg>
